<?xml version="1.0" encoding="utf-8"?>
<!-- Generator: Adobe Illustrator 25.2.2, SVG Export Plug-In . SVG Version: 6.00 Build 0)  -->
<svg version="1.1" id="Ebene_1" xmlns="http://www.w3.org/2000/svg" xmlns:xlink="http://www.w3.org/1999/xlink" x="0px" y="0px"
	 viewBox="0 0 466.3 331.8" style="enable-background:new 0 0 466.3 331.8;" xml:space="preserve">
<style type="text/css">
	.st0{fill:#FFFFFF;}
	.st1{fill:#8C8AFA;}
	.st2{fill:none;stroke:#263238;stroke-linecap:round;stroke-linejoin:round;}
	.st3{opacity:0.3;enable-background:new    ;}
	.st4{opacity:0.3;fill:#FFFFFF;enable-background:new    ;}
	.st5{fill:#8C8AFA;stroke:#263238;stroke-linecap:round;stroke-linejoin:round;}
	.st6{fill:#263238;stroke:#263238;stroke-linecap:round;stroke-linejoin:round;}
	.st7{fill:#858585;stroke:#263238;stroke-linecap:round;stroke-linejoin:round;}
	.st8{fill:#999999;stroke:#263238;stroke-linecap:round;stroke-linejoin:round;}
	.st9{fill:#FFFFFF;stroke:#263238;stroke-linecap:round;stroke-linejoin:round;}
	.st10{fill:none;stroke:#7F7F7F;stroke-width:0.75;stroke-linecap:round;stroke-linejoin:round;}
	.st11{fill:none;stroke:#7F7F7F;stroke-linecap:round;stroke-linejoin:round;}
	.st12{clip-path:url(#SVGID_2_);}
	.st13{fill:none;stroke:#263238;stroke-width:0.75;stroke-linecap:round;stroke-linejoin:round;}
	.st14{fill:#999999;stroke:#263238;stroke-width:0.75;stroke-linecap:round;stroke-linejoin:round;}
	.st15{clip-path:url(#SVGID_4_);}
	.st16{opacity:0.4;fill:#FFFFFF;enable-background:new    ;}
	.st17{fill:#263238;}
	.st18{fill:#FFFFFF;stroke:#263238;stroke-width:0.75;stroke-linecap:round;stroke-linejoin:round;}
	.st19{clip-path:url(#SVGID_6_);}
	.st20{fill:none;stroke:#263238;stroke-width:0.75;stroke-linecap:round;stroke-linejoin:round;stroke-miterlimit:3.9998;}
	.st21{clip-path:url(#SVGID_8_);}
	.st22{fill:#8C8AFA;stroke:#263238;stroke-width:0.75;stroke-linecap:round;stroke-linejoin:round;}
	.st23{fill:#8C8AFA;stroke:#263238;stroke-miterlimit:10;}
	.st24{clip-path:url(#SVGID_10_);}
	.st25{fill:none;stroke:#263238;stroke-miterlimit:10;}
	.st26{fill-rule:evenodd;clip-rule:evenodd;}
</style>
<g>
	<path class="st0" d="M158.3,244.3C104,229.6-20.3,195.1,3.4,98.3c27.3-111.8,178-36,270.4-73.8c65.4-26.8,201.9-55,192,65.9
		c-9.8,117.6-15.4,202.7-94.7,222.9S240.5,266.5,158.3,244.3z"/>
	<g id="freepik--Plant--inject-8">
		<path class="st1" d="M83,216.6c6,5,4,34.4,22.8,21.8s-13.2-20.1-11.4-27.3c2.6-10,44.8,2,37.7-17.2c-7.1-19.2-32.3,9.7-38.9,2.5
			c-6.1-6.6,24.3-30.4,10.1-34.4c-14.2-4-11.1,30.4-20.2,30.4c-7.1,0-5.8-32.9-18.8-21.2s15.5,23.1,11.7,30.3
			c-2.8,5.5-25.3-8.1-24.3,4.6S76.6,211.4,83,216.6z"/>
		<path class="st2" d="M87,201.6c0,0-13.6,16.5-12.1,61.6"/>
		<path class="st1" d="M113.7,225c-2.4-4.9-22.5-8.2-11-18.8s11.4,12.1,16.6,12c7.1-0.1,5.8-30.4,17.6-22.6
			c11.8,7.8-11.7,20.2-7.9,25.8c3.4,5.1,24.3-11.5,24.7-1.3s-22.2,2.6-23.6,8.8c-1.1,4.8,21.2,9.1,11.3,16s-13.1-14.1-18.5-12.7
			c-4.1,1,1.4,18.3-6.9,15.6S116.2,230.1,113.7,225z"/>
		<path class="st3" d="M113.7,225c-2.4-4.9-22.5-8.2-11-18.8s11.4,12.1,16.6,12c7.1-0.1,5.8-30.4,17.6-22.6
			c11.8,7.8-11.7,20.2-7.9,25.8c3.4,5.1,24.3-11.5,24.7-1.3s-22.2,2.6-23.6,8.8c-1.1,4.8,21.2,9.1,11.3,16s-13.1-14.1-18.5-12.7
			c-4.1,1,1.4,18.3-6.9,15.6S116.2,230.1,113.7,225z"/>
		<path class="st2" d="M124,225.2c0,0-38.9-4-42.7,37.9"/>
		<path class="st1" d="M49.9,220.7c-6,5-4,34.4-22.8,21.8s13.2-20.1,11.4-27.3c-2.6-10-44.8,2-37.7-17.2s32.3,9.7,39,2.5
			c6.1-6.6-24.3-30.4-10.1-34.4s11.1,30.4,20.2,30.4c7.1,0,5.8-32.9,18.8-21.2s-15.4,23-11.7,30.2c2.8,5.5,25.3-8.1,24.3,4.6
			S56.2,215.4,49.9,220.7z"/>
		<path class="st4" d="M49.9,220.7c-6,5-4,34.4-22.8,21.8s13.2-20.1,11.4-27.3c-2.6-10-44.8,2-37.7-17.2s32.3,9.7,39,2.5
			c6.1-6.6-24.3-30.4-10.1-34.4s11.1,30.4,20.2,30.4c7.1,0,5.8-32.9,18.8-21.2s-15.4,23-11.7,30.2c2.8,5.5,25.3-8.1,24.3,4.6
			S56.2,215.4,49.9,220.7z"/>
		<path class="st2" d="M45.6,205.7c0,0,17.7,23.6,21.8,63.1"/>
		<path class="st5" d="M58.2,330.5h27.6c5.3,0,9.8-4,10.2-9.3l4.3-51c0.5-5.6-3.7-10.5-9.3-11c-0.3,0-0.5,0-0.8,0H53.9
			c-5.6,0-10.2,4.6-10.2,10.2c0,0.3,0,0.5,0,0.8l4.3,51C48.5,326.4,52.9,330.5,58.2,330.5z"/>
	</g>
	<g id="freepik--Character--inject-8">
		<path class="st6" d="M304.9,257.2c-9.2,0-35.9-6-35.9-6h71.7C340.8,251.2,314.1,257.2,304.9,257.2z"/>
		<rect x="296.7" y="254.2" class="st7" width="16.4" height="11.3"/>
		<rect x="294.3" y="265.5" class="st8" width="21.3" height="48.5"/>
		<path class="st7" d="M344.9,236.8H331c1.5-9.5,2.7-19.3,3.4-28.9h13.8C347.6,217.6,346.5,227.3,344.9,236.8z"/>
		<path class="st7" d="M365.9,122.6h-59.7c-7,0-11.6,5.9-10.2,12.9c3.8,21.3,6.1,42.9,6.8,64.5c0,6.2,4.9,11.2,11.1,11.2
			c0.1,0,0.1,0,0.2,0h50.2c6.5-0.1,11.9-4.8,12.8-11.2c2.4-21.4,3.3-43,2.6-64.5C379.4,128.5,373,122.6,365.9,122.6z"/>
		<path class="st8" d="M369.2,135.5c0.7,21.5-0.2,43.1-2.6,64.5c-0.9,6.4-6.4,11.1-12.8,11.2h-39.7c-6.2,0.1-11.2-4.9-11.2-11
			c0-0.1,0-0.1,0-0.2c-0.7-21.6-3-43.2-6.8-64.5c-1.4-7,3.2-12.9,10.2-12.9h49.1C362.4,122.6,368.9,128.5,369.2,135.5z"/>
		<path class="st6" d="M340.8,322.6c0,1-0.8,1.8-1.8,1.8c-0.1,0-0.3,0-0.4,0c-6.5-1.4-26.1-5.5-33.7-5.5s-27.2,4.1-33.7,5.5
			c-1,0.2-1.9-0.4-2.1-1.3c0-0.1,0-0.3,0-0.4l0,0c0-2.2,1.5-4.1,3.7-4.6c7.6-1.6,25.1-5.2,32.2-5.2s24.5,3.6,32.2,5.2
			C339.2,318.5,340.8,320.4,340.8,322.6z"/>
		<path class="st7" d="M269,319c-3.4,0-6.1,2.7-6.1,6.1s2.7,6.1,6.1,6.1c3.4,0,6.1-2.7,6.1-6.1l0,0C275.1,321.8,272.4,319.1,269,319
			z M269,328.5c-1.8,0-3.3-1.5-3.3-3.3s1.5-3.3,3.3-3.3c1.8,0,3.3,1.5,3.3,3.3l0,0C272.3,327,270.9,328.5,269,328.5z"/>
		<path class="st7" d="M304.9,319c-3.4,0-6.1,2.7-6.2,6.1c0,3.4,2.7,6.1,6.1,6.2c3.4,0,6.1-2.7,6.2-6.1c0,0,0,0,0-0.1
			C311,321.8,308.3,319.1,304.9,319z M304.9,328.5c-1.8,0-3.3-1.5-3.3-3.3s1.5-3.3,3.3-3.3s3.3,1.5,3.3,3.3
			C308.2,327,306.8,328.5,304.9,328.5L304.9,328.5z"/>
		<path class="st7" d="M340,319c-3.4,0-6.1,2.7-6.1,6.1s2.7,6.1,6.1,6.1s6.1-2.7,6.1-6.1l0,0C346.2,321.8,343.4,319,340,319L340,319
			z M340,328.5c-1.8,0-3.3-1.5-3.3-3.3s1.5-3.3,3.3-3.3s3.3,1.5,3.3,3.3l0,0C343.4,327,341.9,328.5,340,328.5z"/>
		<path class="st8" d="M323.1,234.9c-23.9,0.8-47.9-0.3-71.7-3.2c-4.1-0.7-8,2-8.7,6c-0.1,0.5-0.1,1-0.1,1.5v1.2
			c0.1,5.1,3.8,9.3,8.8,10.2c23.8,2.9,47.7,3.9,71.7,3.2V234.9z"/>
		<path class="st7" d="M360.7,250.3c-14.9,1.9-29.6,3.1-44.5,3.7c-3.5,0.1-6.5-2.7-6.6-6.2c0-0.1,0-0.2,0-0.2v-5.8
			c0-3.7,3-6.6,6.6-6.7c15-0.6,29.7-1.9,44.5-3.7c3-0.6,5.9,1.4,6.5,4.4c0.1,0.4,0.1,0.8,0.1,1.2v5.8
			C367.1,246.5,364.4,249.7,360.7,250.3z"/>
		<path class="st9" d="M261.2,328.1c0-3.3-0.7-10-4.7-18.6l-5.1-18.5l-16,6.8l4.5,14.2c0,0-13.8,6.6-18.8,8.3
			c-3.4,1.2-13.5,3.5-13,7.8l0,0c0,1.3,1,2.3,2.3,2.3h48.5C260.1,330.5,261.2,329.5,261.2,328.1
			C261.2,328.2,261.2,328.1,261.2,328.1z"/>
		<path class="st5" d="M252.4,317.3c-2.5,1.8-15.8,4.2-12.5,1.5s0-6.8,0-6.8s-13.8,6.6-18.8,8.3c-3.4,1.2-13.5,3.5-13,7.8
			c0,1.3,1,2.3,2.3,2.3h48.5c1.3,0,2.3-1,2.3-2.3l0,0c-0.2-5.1-1.2-10.1-3.1-14.8C255.4,313.4,254.9,315.5,252.4,317.3z"/>
		<path class="st9" d="M272.8,330.5h35.5c0.7,0,1.4-0.5,1.5-1.2c0.5-2.8,0.4-9.1-2.8-17.5l-0.3-17l-18.2,3.1l2.3,14.5
			c0,0-7.3,8.1-10.8,9.5c-2.4,1-8,1.1-8.7,7c-0.1,0.8,0.5,1.6,1.4,1.7C272.7,330.5,272.7,330.5,272.8,330.5z"/>
		<path class="st5" d="M301,317.4c-3.8,2.6-6.5,2.9-4.8-1c1.8-3.9-5.4-4.1-5.4-4.1s-7.3,8.1-10.8,9.5c-2.4,1-8,1.1-8.7,7
			c-0.1,0.8,0.5,1.6,1.3,1.7c0.1,0,0.1,0,0.2,0h35.5c0.7,0,1.4-0.5,1.5-1.2c0.5-2.8,0.4-9.1-2.8-17.5
			C304.2,312.4,304.7,314.7,301,317.4z"/>
		<path class="st6" d="M269.2,200.6c0,0-3.6,3.7-18.2,6s-45,9.7-44.6,21.7s28.3,76,28.3,76s14-2.7,20.5-6.7c0,0-11.3-45.7-19.7-57.7
			c0,0,37.9-4.7,58.9-13.3s8.6-28.4,8.6-28.4L269.2,200.6z"/>
		<path class="st6" d="M293,199c0,0,5.4,9,1.4,14s-26.9,14.3-24.3,25.7c2.6,11.4,11.1,27.3,16.6,65.3c0,0,12.9-2,21.6-5.7
			c0,0,1.4-38.7-8.6-55.3c0,0,28.8-5.3,31.7-15s-2.5-24.5-2.6-29.7L293,199z"/>
		<path class="st10" d="M275.7,213.3c-0.7-0.1-1.3-0.1-2,0"/>
		<path class="st10" d="M277,207.3c0,0,5.9,1.7,8.2,9.5c0.1,0.3-0.1,0.7-0.5,0.7c-0.2,0-0.4,0-0.5-0.1c-1.6-1.6-3.5-2.9-5.7-3.6"/>
		<path class="st10" d="M232.7,239.6c0-3.2-14-5-10.2-8s12.2,6.8,12.2,6.8"/>
		<path class="st10" d="M301.5,252.6c0-3.7-13.4-5.8-12.7-9.8c0.7-4,9.2,3.9,9.2,3.9"/>
		<path class="st8" d="M233.3,304.5l1.5,3.4c0.2,0.4,0.6,0.6,1,0.5c3.2-0.7,16.7-3.9,21.4-7.3c0.3-0.2,0.4-0.6,0.3-0.9l-0.9-3.8
			c-0.1-0.5-0.6-0.8-1-0.6c-0.1,0-0.2,0-0.2,0.1c-2.1,1.2-8.1,3.9-21.4,7.5c-0.5,0.1-0.8,0.6-0.6,1.1
			C233.2,304.5,233.2,304.5,233.3,304.5z"/>
		<path class="st8" d="M285.2,301.7c-0.1-0.4,0.2-0.7,0.6-0.8c0.1,0,0.2,0,0.3,0c1.6,0.5,3.4,0.5,5,0.1c3.7-0.8,14.3-4.2,17.5-5.2
			c0.4-0.1,0.8,0.1,0.9,0.4c0,0.1,0,0.1,0,0.2v4.4c0,0.3-0.2,0.5-0.4,0.6c-2.5,1.1-15.8,6.8-22.7,5.2c-0.3-0.1-0.5-0.3-0.5-0.6
			L285.2,301.7z"/>
		<path class="st11" d="M295.9,209.1c-0.1,1.4-0.6,2.7-1.5,3.8c-2.9,3.6-15.9,9.6-21.7,17"/>
		<path class="st11" d="M295.2,204.1c0.2,0.7,0.4,1.5,0.5,2.2"/>
		<path class="st2" d="M218.7,322.6c0.8,1.5,1.4,3.1,1.8,4.8h36.1c0.1-1.6,0.8-3,2-4.1"/>
		<path class="st2" d="M281.4,322.6c0,0,5,0.4,6.9,4.8h18.9c0.6-1.3,0.9-2.7,1-4.1"/>
		<path class="st1" d="M251.8,144.1c0.5,1.8,0.9,3.5,1.4,5.2c5,18,11.5,52.2,11.5,52.2c32,6.8,65.7,0,65.7,0
			c0.2-7.5-0.7-17.3-1.7-27.7c5.2-1.5,9-6.3,9.2-14.3c0.2-9.8-1.5-27.3-2.5-35.5c-0.9-7.2-0.2-11.5-11.4-17
			c-5.6-3.2-14.9-4.8-26.3-6.3c-22.5-3-38.7,1.6-44.5,4c-4.6-1.2-5.8,4.2-5.8,4.2c-2.5-1.9-5.5,6.2-5.5,6.2
			c-7.4,9.4-13.2,25.3-15.2,31c-0.4,1.2-1.2,2.3-2.3,3.1c-5.2,4-2.3,8.9-2.3,8.9l10.8,3.3c0,0,5.2,1.4,9.2-5.5
			C245.4,150.3,250.9,140.6,251.8,144.1z"/>
		<g>
			<g>
				<defs>
					<path id="SVGID_1_" d="M251.8,144.1c0.5,1.8,0.9,3.5,1.4,5.2c5,18,11.5,52.2,11.5,52.2c32,6.8,65.7,0,65.7,0
						c0.2-7.5-0.7-17.3-1.7-27.7c5.2-1.5,9-6.3,9.2-14.3c0.2-9.8-1.5-27.3-2.5-35.5c-0.9-7.2-0.2-11.5-11.4-17
						c-5.6-3.2-14.9-4.8-26.3-6.3c-22.5-3-38.7,1.6-44.5,4c-4.6-1.2-5.8,4.2-5.8,4.2c-2.5-1.9-5.5,6.2-5.5,6.2
						c-7.4,9.4-13.2,25.3-15.2,31c-0.4,1.2-1.2,2.3-2.3,3.1c-5.2,4-2.3,8.9-2.3,8.9l10.8,3.3c0,0,5.2,1.4,9.2-5.5
						C245.4,150.3,250.9,140.6,251.8,144.1z"/>
				</defs>
				<clipPath id="SVGID_2_">
					<use xlink:href="#SVGID_1_"  style="overflow:visible;"/>
				</clipPath>
				<g class="st12">
					<path class="st3" d="M234.9,157c0,0-0.2-5-4.2-5.9s1.1-2.4,4.2-1.6s2.4-2,5.1-6.5s4-8.1,6.3-5.5s4.6,3,5.6,6.5s-3.8,12-3.8,12
						l-7.5,5.8l-3.8,2.1h-5.7l-1.9-4.9L234.9,157z"/>
				</g>
			</g>
		</g>
		<path class="st2" d="M251.8,144.1c0.5,1.8,0.9,3.5,1.4,5.2c5,18,11.5,52.2,11.5,52.2c32,6.8,65.7,0,65.7,0
			c0.2-7.5-0.7-17.3-1.7-27.7c5.2-1.5,9-6.3,9.2-14.3c0.2-9.8-1.5-27.3-2.5-35.5c-0.9-7.2-0.2-11.5-11.4-17
			c-5.6-3.2-14.9-4.8-26.3-6.3c-22.5-3-38.7,1.6-44.5,4c-4.6-1.2-5.8,4.2-5.8,4.2c-2.5-1.9-5.5,6.2-5.5,6.2
			c-7.4,9.4-13.2,25.3-15.2,31c-0.4,1.2-1.2,2.3-2.3,3.1c-5.2,4-2.3,8.9-2.3,8.9l10.8,3.3c0,0,5.2,1.4,9.2-5.5
			C245.4,150.3,250.9,140.6,251.8,144.1z"/>
		<path class="st3" d="M330.5,201.6c0-6.4-0.3-12.8-1-19.2c1.1,15.2-30.6,20-31.6,11.7s30.8-20.2,13.5-16
			c-15.1,3.6-44.4,0.2-51.6-0.8c2.8,13,4.9,24.3,4.9,24.3C296.7,208.3,330.5,201.6,330.5,201.6z"/>
		<path class="st3" d="M315.9,125.1c0,0-4.5,13.2-4.5,20.2S298.7,157,298.7,157c6.8-1.4,13.4-3.2,16.6-4.1c1.1-0.3,1.9-1.4,1.8-2.6
			C316.2,141.9,315.9,133.5,315.9,125.1L315.9,125.1z"/>
		<path class="st13" d="M247.6,121.7c0,6.2,1.2,12.4,3.3,18.3c0.2,0.4-0.1,0.9-0.5,1.1c-0.3,0.1-0.6,0.1-0.8-0.1
			c-1.7-1.2-4.1-3.7-6.3-8.8"/>
		<path class="st13" d="M332.5,162.6c-2.6-8.8-7.2-10.9-10.8-11.2c-0.3,0-0.5-0.3-0.5-0.6c0-0.1,0.1-0.3,0.2-0.4
			c2.1-1.1,6.1-2,11,3.5"/>
		<path class="st14" d="M281.8,137.5c-0.1,0.8-0.8,1.4-1.7,1.3c-0.7-0.1-1.2-0.6-1.3-1.3c-0.1-0.8,0.5-1.6,1.3-1.7
			c0.8-0.1,1.6,0.5,1.7,1.3C281.8,137.3,281.8,137.4,281.8,137.5z"/>
		<path class="st14" d="M283.8,154.5c0,0.8-0.7,1.5-1.5,1.5c-0.8,0-1.5-0.7-1.5-1.5s0.7-1.5,1.5-1.5l0,0
			C283.1,153,283.8,153.7,283.8,154.5z"/>
		<path class="st8" d="M288.8,195.6c0,0.8-0.7,1.5-1.5,1.5c-0.8,0-1.5-0.7-1.5-1.5s0.7-1.5,1.5-1.5l0,0
			C288.1,194.1,288.8,194.7,288.8,195.6z"/>
		<path class="st9" d="M260.1,165.7c0,0-4.9,4.7-2.6,4.8c2.3,0.1,5.3-3.1,8-3.5c2.7-0.4-1.7-2-1.7-2L260.1,165.7z"/>
		<path class="st9" d="M288.8,160.4c-0.4-0.4-1-0.6-1.6-0.5c-2.4,0.2-9.3,0.7-11.9,0.6c-4.6-0.3-18.2-3.2-18.2-3.2
			c-0.3-0.1-0.6,0-0.9,0l-8.4,2.5c-0.3,0.1-0.6,0.3-0.8,0.5l-5.1,4.7c-0.2,0.2-0.3,0.3-0.4,0.5l-1.1,1.9c-0.4,0.8-0.3,1.8,0.4,2.5
			l0,0l8.4,0.2c0.5,0,1-0.2,1.4-0.5l2.5-2.1c0.2-0.1,0.3-0.3,0.4-0.5c0.6-1,3-4.3,6.7-4c0,0-8,4.2-6.5,6s7.6-3.2,9.6-2.8
			c2,0.5,2.1,5.4,13,3.6c0.5-0.1,1-0.1,1.5,0.1l9.9,2.8c1.2,0.3,2.5-0.4,2.8-1.6l0,0C291.2,168.2,291.9,163.2,288.8,160.4z"/>
		<path class="st9" d="M258.2,159.1l-2.1,0.4c-1,0.2-2,0.6-2.8,1.3l-2.3,1.9c-0.4,0.3-0.7,0.7-1,1.2l-1.4,2.2
			c-0.2,0.2-0.3,0.5-0.5,0.7c-0.9,1-3.2,3.8-0.7,3.4"/>
		<path class="st9" d="M252.2,159.8l-2.2,0.6c-0.7,0.2-1.3,0.5-1.8,1l-1.7,1.6c-0.2,0.1-0.3,0.3-0.4,0.5l-2.8,3.7c0,0-1.5,2.6,0,2.7
			"/>
		<path class="st2" d="M316,122.9c-0.2,9.1,0.1,18.3,1,27.4c0.1,1.2-0.6,2.2-1.8,2.5c-8,2.4-16,4.2-24.2,5.5"/>
		<path class="st13" d="M316.5,116.7c-0.1,1-0.2,2.1-0.3,3.2"/>
		<path class="st13" d="M319.9,107.4c-1.1,1-2,2.8-2.6,5.2"/>
		<path class="st0" d="M269.8,101.4c0,0,0.6-2,4-3.1s15.1-2.9,21.1,0c6,2.9-5.5,18.8-5.5,18.8l-5.3,7.4l-4.8,3.6l-2.1-6.3l-2.8-2.9
			c0,0-5.9-4.9-5.4-9.7S269.8,101.4,269.8,101.4z"/>
		<path class="st1" d="M299.3,101c-0.9-3.3-5.2-4.2-5.2-4.2c-20.5-3.5-24.8,4-24.8,4c-2.5,6.8-2.5,14.2,0,21c0,0,5.8-2.4,6.8,0
			s2.8,7.6,2.8,7.6c2.8-1.6,5.2-3.7,7.1-6.3c3.2-4.2,10.6,0,10.6,0C301.5,114.8,299.3,101,299.3,101z M294.3,100.8
			c-7.9,24.9-14.9,26-14.9,26c-2.3-9.2-4.3-7.2-7.5-12.9c-2.5-4.6-1.7-10.4-1.2-12.6c0.1-0.5,0.4-1,0.9-1.2c7.9-4,17.5-2.5,21.5-1.7
			c1,0.2,1.6,1.1,1.4,2.1C294.4,100.6,294.4,100.7,294.3,100.8L294.3,100.8z"/>
		<g>
			<g>
				<defs>
					<path id="SVGID_3_" d="M299.3,101c-0.9-3.3-5.2-4.2-5.2-4.2c-20.5-3.5-24.8,4-24.8,4c-2.5,6.8-2.5,14.2,0,21c0,0,5.8-2.4,6.8,0
						s2.8,7.6,2.8,7.6c2.8-1.6,5.2-3.7,7.1-6.3c3.2-4.2,10.6,0,10.6,0C301.5,114.8,299.3,101,299.3,101z M294.3,100.8
						c-7.9,24.9-14.9,26-14.9,26c-2.3-9.2-4.3-7.2-7.5-12.9c-2.5-4.6-1.7-10.4-1.2-12.6c0.1-0.5,0.4-1,0.9-1.2
						c7.9-4,17.5-2.5,21.5-1.7c1,0.2,1.6,1.1,1.4,2.1C294.4,100.6,294.4,100.7,294.3,100.8L294.3,100.8z"/>
				</defs>
				<clipPath id="SVGID_4_">
					<use xlink:href="#SVGID_3_"  style="overflow:visible;"/>
				</clipPath>
				<g class="st15">
					<path class="st16" d="M299.3,101c-0.9-3.3-5.2-4.2-5.2-4.2c-20.5-3.5-24.8,4-24.8,4c-2.5,6.8-2.5,14.2,0,21c0,0,5.8-2.4,6.8,0
						s2.8,7.6,2.8,7.6c2.8-1.6,5.2-3.7,7.1-6.3c3.2-4.2,10.6,0,10.6,0C301.5,114.8,299.3,101,299.3,101z M294.3,100.8
						c-7.9,24.9-14.9,26-14.9,26c-2.3-9.2-4.3-7.2-7.5-12.9c-2.5-4.6-1.7-10.4-1.2-12.6c0.1-0.5,0.4-1,0.9-1.2
						c7.9-4,17.5-2.5,21.5-1.7c1,0.2,1.6,1.1,1.4,2.1C294.4,100.6,294.4,100.7,294.3,100.8L294.3,100.8z"/>
				</g>
			</g>
		</g>
		<path class="st2" d="M299.3,101c-0.9-3.3-5.2-4.2-5.2-4.2c-20.5-3.5-24.8,4-24.8,4c-2.5,6.8-2.5,14.2,0,21c0,0,5.8-2.4,6.8,0
			s2.8,7.6,2.8,7.6c2.8-1.6,5.2-3.7,7.1-6.3c3.2-4.2,10.6,0,10.6,0C301.5,114.8,299.3,101,299.3,101z M294.3,100.8
			c-7.9,24.9-14.9,26-14.9,26c-2.3-9.2-4.3-7.2-7.5-12.9c-2.5-4.6-1.7-10.4-1.2-12.6c0.1-0.5,0.4-1,0.9-1.2c7.9-4,17.5-2.5,21.5-1.7
			c1,0.2,1.6,1.1,1.4,2.1C294.4,100.6,294.4,100.7,294.3,100.8L294.3,100.8z"/>
		<path class="st6" d="M265.8,62.9c0,0-17.7,3.5-7.9,15C268.7,90.7,265.8,62.9,265.8,62.9z"/>
		<path class="st9" d="M258.9,91c0,0-4.2-17,3.8-25.2s16.7-9.8,23.2-5.8s9.2,14,8.2,19.2s-0.5,23.7-9.4,31.3s-14.4,5.8-20.3-4.7
			C260.4,98.9,258.6,97,258.9,91z"/>
		<path class="st6" d="M289.8,87.6c0,0-6.7-6.7-8.8-14.5s-3.2-9.2-10.9-5.3c-7.7,3.9-19.6-1.3-16.5-11c3.3-10.2,13.3,3,23-0.3
			c9.7-3.3,16.5,2.7,16.5,11.5c0,0,5.8,5.7,0,20.3L289.8,87.6z"/>
		<path class="st9" d="M287.7,86.5c0,0,1.7-9.3,6.4-8.5c4.7,0.9,1.4,14.6-4.2,13.1"/>
		<path class="st9" d="M265.2,89.7c0,0-1.9,8.6-1.2,10.1c0.7,1.5,6.3,0.4,6.3,0.4"/>
		<path class="st9" d="M271.1,103.9c0,0,4.5,1.8,8.4-4.1"/>
		<path class="st17" d="M262.2,90.4c0.2,0.8-0.1,1.5-0.5,1.6s-0.9-0.5-1.1-1.3s0-1.5,0.5-1.6S262,89.6,262.2,90.4z"/>
		<path class="st17" d="M273.1,89.5c0.2,0.8,0,1.5-0.5,1.6s-0.9-0.5-1.1-1.3s0-1.5,0.5-1.6S273,88.7,273.1,89.5z"/>
		<path class="st2" d="M264.5,90c0.2,2.3-2,4.4-5.1,4.6s-5.7-1.3-5.9-3.6s2.2-3.3,5.2-3.6S264.3,87.8,264.5,90z"/>
		<path class="st2" d="M278.6,88.6c0.2,2.3-2,4.4-5.1,4.6s-5.7-1.3-5.9-3.6c-0.2-2.3,2.2-3.3,5.2-3.6S278.4,86.3,278.6,88.6z"/>
		<line class="st2" x1="264.5" y1="90" x2="267.6" y2="89.7"/>
		<line class="st2" x1="278.2" y1="87.5" x2="289.9" y2="80.6"/>
		<line class="st2" x1="291.9" y1="98.1" x2="292.4" y2="99.5"/>
		<path class="st9" d="M257.9,86.4c0,0,1.8-2.2,3.9-1.2"/>
		<path class="st9" d="M276,85.4c0,0-3.1-3-6.1-0.9"/>
		<path class="st11" d="M261.9,57.9c4.7,1.5,12.7,3.3,19.2,1.4c10-3,6.6,8.2,8.8,11.3"/>
		<path class="st11" d="M257.8,56.4c0,0,0.8,0.4,2.1,0.8"/>
		<path class="st11" d="M269.7,63.5c0.5-0.2,1.1-0.4,1.7-0.6"/>
		<path class="st11" d="M258.9,62.2c0,0,2.1,3.3,8.9,1.8"/>
		<path class="st11" d="M284.3,68.6c0.5,3.9,2,7.5,4.2,10.7"/>
		<path class="st11" d="M284,65.1c0,0.6,0,1.2,0.1,1.8"/>
		<path class="st3" d="M292.9,172.3c-0.5,0.4-0.6,1.1-0.1,1.6c0.2,0.3,0.5,0.4,0.9,0.4c6.8,0,25,0.1,32-0.3c8.8-0.5,2.1-10-5-6.4
			C314.2,171,300.6,165.4,292.9,172.3z"/>
		<path class="st9" d="M216.7,163c0,0,4.1-10.9,14.4-9.2c10.3,1.7,2.4,10.3-2.5,11.1C228.6,164.9,227.8,161.9,216.7,163z"/>
		<path class="st9" d="M208,169.1c-1.4,1.4-4.6,1.5-2.4-1.5c1.8-2.4,4.2-4.2,7-5.2c4.9-2.2,6.8-1.7,11.2-2.7s5.2,0.8,6.8,1.7
			c3.6,2,4.5,2.3,5.4,4.3s1.9,4.6-0.9,4.6c-2.6,0-2.8-4.3-5.2-4.1c-2.5,0.2-3.8,4.1-5.5,4.1h-0.7c-1.5,0-1.6-1.2-0.7-3.2
			c0.9-2,1.9-3.7,1.9-3.7c-1.5,0.8-2.7,2-3.4,3.6c-1.2,2.5-1.4,3.6-3.6,3.6s-2-1.6,0.1-5.3c-1.3,0.8-2.3,1.8-3.1,3.1
			c-1.1,2-1.6,1.9-3.1,1.9c-1.9,0-1.7-3.1,1.6-5.1C213.5,165.3,212.7,164.4,208,169.1z"/>
		<path class="st18" d="M220.9,161.8c0,0-1.3-0.1-2.1,2.1"/>
	</g>
	<path class="st13" d="M403.6,84"/>
	<path class="st13" d="M385.2,67.7"/>
	<path class="st13" d="M320.1,33.4c16.6,5.2,17,7.3,31.7,16.5"/>
	<path class="st13" d="M309.2,30.4c2,0.5,4,1.1,6,1.6"/>
	<path class="st13" d="M298,27.9c2.2,0.4,4.4,0.9,6.6,1.4"/>
	<path class="st13" d="M287.9,26.2c1.9,0.3,3.8,0.6,5.7,0.9"/>
	<path class="st13" d="M227.6,26.6c18.5-2.9,37.4-3.2,56-1"/>
	<path class="st13" d="M219.4,28c1.7-0.3,3.4-0.7,5.1-0.9"/>
	<path class="st13" d="M211.4,29.8c1.7-0.4,3.4-0.8,5.1-1.2"/>
	<path class="st13" d="M201.5,32.4c1.7-0.5,3.5-1,5.2-1.5"/>
	<path class="st13" d="M149.2,57.8c16.6-11.6,27.6-17.5,46.8-23.7"/>
	<ellipse class="st1" cx="168" cy="47.5" rx="24.9" ry="24.9"/>
	<g>
		<g>
			<defs>
				<circle id="SVGID_5_" cx="168" cy="47.5" r="24.9"/>
			</defs>
			<clipPath id="SVGID_6_">
				<use xlink:href="#SVGID_5_"  style="overflow:visible;"/>
			</clipPath>
			<g class="st19">
				<ellipse class="st4" cx="168" cy="47.5" rx="24.9" ry="24.9"/>
			</g>
		</g>
	</g>
	<ellipse class="st20" cx="168" cy="47.5" rx="24.9" ry="24.9"/>
	<ellipse class="st1" cx="348.1" cy="47.5" rx="24.9" ry="24.9"/>
	<g>
		<g>
			<defs>
				<circle id="SVGID_7_" cx="348.1" cy="47.5" r="24.9"/>
			</defs>
			<clipPath id="SVGID_8_">
				<use xlink:href="#SVGID_7_"  style="overflow:visible;"/>
			</clipPath>
			<g class="st21">
				<ellipse class="st4" cx="348.1" cy="47.5" rx="24.9" ry="24.9"/>
			</g>
		</g>
	</g>
	<ellipse class="st20" cx="348.1" cy="47.5" rx="24.9" ry="24.9"/>
	<path class="st22" d="M243.9,0.4h19.2c7.5,0,13.6,6.1,13.6,13.6v19.2c0,7.5-6.1,13.6-13.6,13.6h-19.2c-7.5,0-13.6-6.1-13.6-13.6V14
		C230.3,6.5,236.4,0.4,243.9,0.4z"/>
	<g id="freepik--Desk--inject-8">
		<polygon class="st7" points="150.3,330.6 146.5,330.6 145.5,183.4 150.3,183.4 		"/>
		<polygon class="st8" points="154,330.6 150.3,330.6 150.3,183.4 155,183.4 		"/>
		<rect x="107.8" y="174.4" class="st6" width="254.2" height="9"/>
		<rect x="358.2" y="174.4" class="st7" width="56.9" height="9"/>
		<rect x="120.8" y="183.4" class="st23" width="252.7" height="14.9"/>
		<rect x="373.5" y="183.4" class="st1" width="29.4" height="14.9"/>
		<g>
			<g>
				<defs>
					<rect id="SVGID_9_" x="373.5" y="183.4" width="29.4" height="14.9"/>
				</defs>
				<clipPath id="SVGID_10_">
					<use xlink:href="#SVGID_9_"  style="overflow:visible;"/>
				</clipPath>
				<g class="st24">
					<rect x="373.5" y="183.4" class="st3" width="29.4" height="14.9"/>
				</g>
			</g>
		</g>
		<rect x="373.5" y="183.4" class="st25" width="29.4" height="14.9"/>
		<polygon class="st7" points="373.5,330.6 369.8,330.6 368.8,183.4 373.5,183.4 		"/>
		<polygon class="st8" points="377.3,330.6 373.5,330.6 373.5,183.4 378.3,183.4 		"/>
		<polygon class="st7" points="120.8,330.6 117.1,330.6 116.1,183.4 120.8,183.4 		"/>
		<polygon class="st8" points="124.5,330.6 120.8,330.6 120.8,183.4 125.5,183.4 		"/>
		<polygon class="st7" points="403,330.6 399.3,330.6 398.3,183.4 403,183.4 		"/>
		<polygon class="st8" points="406.7,330.6 403,330.6 403,183.4 407.7,183.4 		"/>
		<path class="st7" d="M272.1,173.4h-29.8c-0.6,0-1.1-0.5-1.1-1.1v-2.5l32,1v1.5C273.2,172.9,272.7,173.4,272.1,173.4z"/>
		<path class="st8" d="M237.9,173.4H178c-1,0-1.9-0.7-2.2-1.7L162.9,130c-0.3-0.8,0.1-1.7,0.9-2.1c0.2-0.1,0.4-0.1,0.6-0.1h59.9
			c1,0,1.9,0.7,2.2,1.7l12.9,41.7c0.3,0.8-0.1,1.7-0.9,2.1C238.3,173.3,238.1,173.4,237.9,173.4z"/>
		<path class="st7" d="M242,171.2l-12.9-41.7c-0.3-1-1.2-1.6-2.2-1.7h-2.6c1,0,1.9,0.7,2.2,1.7l12.9,41.7c0.3,0.8-0.1,1.7-0.9,2.1
			c-0.2,0.1-0.4,0.1-0.6,0.1h2.7c0.9,0,1.6-0.7,1.6-1.6C242.1,171.6,242.1,171.4,242,171.2z"/>
		<path class="st9" d="M204.9,150.6c0.3,1.8-0.9,3.4-2.7,3.7c-0.2,0-0.4,0-0.6,0c-2.1-0.1-3.9-1.6-4.2-3.7c-0.3-1.7,0.9-3.4,2.7-3.7
			c0.2,0,0.4,0,0.6,0C202.8,146.9,204.6,148.5,204.9,150.6z"/>
	</g>
	<path class="st26" d="M346.5,42.1c0-1.2,1-1.7,2.7-1.7c2.4,0,5.4,0.7,7.7,2v-7.3c-2.6-1-5.1-1.4-7.7-1.4c-6.3,0-10.5,3.3-10.5,8.8
		c0,8.6,11.9,7.2,11.9,11c0,1.4-1.2,1.9-3,1.9c-2.6,0-5.9-1.1-8.5-2.5v7.4c2.9,1.2,5.8,1.8,8.5,1.8c6.5,0,11-3.2,11-8.8
		C358.4,44,346.5,45.6,346.5,42.1z"/>
	<path d="M176.1,43.5v-3.9c1.1-0.5,1.7-1.5,1.7-2.7v-0.1c0-1.7-1.4-3-3-3h-0.1c-1.7,0-3,1.4-3,3v0.1c0,1.2,0.7,2.2,1.7,2.7v3.9
		c-1.5,0.2-2.9,0.8-4.1,1.8l-10.8-8.4c0.1-0.3,0.1-0.5,0.1-0.8c0-1.9-1.5-3.5-3.4-3.5s-3.4,1.5-3.4,3.4c0,1.9,1.5,3.4,3.4,3.4l0,0
		c0.6,0,1.2-0.2,1.7-0.5l10.6,8.3c-2,2.9-1.9,6.8,0.1,9.7l-3.2,3.2c-0.3-0.1-0.5-0.1-0.8-0.1c-1.5,0-2.8,1.3-2.8,2.8
		s1.3,2.8,2.8,2.8c1.5,0,2.8-1.3,2.8-2.8c0-0.3,0-0.5-0.1-0.8l3.2-3.2c2.9,2.2,6.8,2.4,9.8,0.5c3.1-1.9,4.6-5.5,3.9-9.1
		C182.5,46.8,179.6,44.1,176.1,43.5 M174.7,56.5c-2.5,0.1-4.5-1.9-4.5-4.3c-0.1-2.5,1.9-4.5,4.3-4.5c0.1,0,0.2,0,0.2,0
		c2.4,0.1,4.3,2,4.3,4.4C179,54.4,177.1,56.4,174.7,56.5"/>
	<g>
		<path d="M249.9,15.3c-1.2,7.9,2.3,17.9,5.2,20.8l8.5,4.8l0.7,0.3c0,0-8.9-16.7-8.4-29.5L249.9,15.3z"/>
		<path d="M240.3,20.7c-0.6,2.2-1,5.2,0.6,7.2l4.5,2.4c-1.9-3.1-2.6-7.5-0.6-12L240.3,20.7z"/>
		<path d="M249.9,15.3c-1.2,7.9,2.3,17.9,5.2,20.8l4.5,2.6c0,0-8.2-16.6-7.1-25C250.9,15.7,249.9,15.3,249.9,15.3z"/>
		<path d="M264.5,41.5c4.3-8.2,6.1-25.2,0-34.8c0,15.4-5.9,25-9.4,29.3C255.1,36,261,39.5,264.5,41.5z"/>
		<path d="M241.2,27.9l7.6,4.4c8.1-6.8,7.9-17.6,7.1-20.6l-6.3,3.8C248.9,23.4,243.5,27.3,241.2,27.9z"/>
		<path d="M240.3,20.7c-0.6,2.2-1,5.2,0.6,7.2l2.1,1.2c0,0-2.4-4.8-0.7-9.6C241.4,20.6,240.3,20.7,240.3,20.7z"/>
		<path d="M260.2,39c3.8-4.6,7.7-23.1,4.3-32.3c0,15.4-5.9,25-9.4,29.3C255.1,36,257.5,37.4,260.2,39z"/>
		<path d="M241.2,27.9l4.2,2.5c0,0,7.8-6.2,7.1-16.7c-1.2,0.7-3,1.8-3,1.8C248.9,23.4,243.5,27.3,241.2,27.9z"/>
		<path d="M252.4,17.7c-1.7,8.3-6.3,12-6.3,12S251.1,26,252.4,17.7z"/>
		<path d="M233.6,23.8c7.5,5.3,11.4-5.7,11.4-5.7l-4.6,2.6C238.1,23.7,235.7,23.8,233.6,23.8z"/>
		<path d="M233.6,23.8c5.2,3,8.8-4.2,8.8-4.2l-2.1,1.2C238.1,23.7,235.7,23.8,233.6,23.8z"/>
		<path d="M261.4,37.1c3.9-6.6,4.3-17.8,4.3-17.8C264.6,31.1,261.7,36.7,261.4,37.1z"/>
		<path d="M261.4,37.2L261.4,37.2L261.4,37.2z"/>
		<path d="M235.5,24.5c3.8,0.3,6-3.4,6-3.4C238.9,24.6,235.5,24.5,235.5,24.5z"/>
	</g>
</g>
</svg>
